<?xml version="1.0" encoding="UTF-8" standalone="no"?>
<svg
   xmlns:dc="http://purl.org/dc/elements/1.1/"
   xmlns:cc="http://creativecommons.org/ns#"
   xmlns:rdf="http://www.w3.org/1999/02/22-rdf-syntax-ns#"
   xmlns:svg="http://www.w3.org/2000/svg"
   xmlns="http://www.w3.org/2000/svg"
   xmlns:sodipodi="http://sodipodi.sourceforge.net/DTD/sodipodi-0.dtd"
   xmlns:inkscape="http://www.inkscape.org/namespaces/inkscape"
   width="48"
   height="48"
   viewBox="0 0 48 48"
   id="svg4186"
   version="1.1"
   inkscape:version="0.91 r13725"
   sodipodi:docname="national-geographic-wallpaper.svg">
  <metadata
     id="metadata4196">
    <rdf:RDF>
      <cc:Work
         rdf:about="">
        <dc:format>image/svg+xml</dc:format>
        <dc:type
           rdf:resource="http://purl.org/dc/dcmitype/StillImage" />
        <dc:title></dc:title>
      </cc:Work>
    </rdf:RDF>
  </metadata>
  <defs
     id="defs4194" />
  <sodipodi:namedview
     pagecolor="#ffffff"
     bordercolor="#666666"
     borderopacity="1"
     objecttolerance="10"
     gridtolerance="10"
     guidetolerance="10"
     inkscape:pageopacity="0"
     inkscape:pageshadow="2"
     inkscape:window-width="1920"
     inkscape:window-height="1021"
     id="namedview4192"
     showgrid="false"
     inkscape:zoom="8.6354167"
     inkscape:cx="26.055267"
     inkscape:cy="12.284693"
     inkscape:window-x="0"
     inkscape:window-y="27"
     inkscape:window-maximized="1"
     inkscape:current-layer="svg4186" />
  <path
     d="M0 0h48v48h-48z"
     fill="none"
     id="path4188" />
  <path
     d="M42 4h-36c-2.21 0-4 1.79-4 4v24c0 2.21 1.79 4 4 4h14v4h-4v4h16v-4h-4v-4h14c2.21 0 4-1.79 4-4v-24c0-2.21-1.79-4-4-4zm0 28h-36v-24h36v24z"
     id="path4190" />
  <path
     inkscape:connector-curvature="0"
     style="fill:#fbd42c"
     d="m 17.855166,11.34284 0,17.84508 12.289668,0 0,-17.84508 -12.289668,0 z m 10.512178,16.048532 -8.741041,0 0,-14.250775 8.741041,0 0,14.250775 z"
     id="path4718" />
</svg>
